<?xml version="1.0" encoding="UTF-8" standalone="no"?>
<svg width="100%" height="100%" viewBox="0 0 120 120" version="1.1" xmlns="http://www.w3.org/2000/svg">
    <g id="Layer-1" transform="matrix(1,0,0,1,-336.8,-534.49)">
        <g opacity="0.75">
            <path id="path3768-2" d="M444.193,620.829L398.17,647.407L352.137,620.829L398.166,594.257L444.193,620.829Z" style="fill:rgb(129,70,70);fill-rule:nonzero;"/>
            <path id="path3770-1" d="M398.166,594.257L398.166,541.107L352.137,567.679L352.137,620.829L398.166,594.257Z" style="fill:rgb(179,147,84);fill-rule:nonzero;"/>
            <path id="path3766-7" d="M367.48,611.97L398.166,629.687L398.166,594.254L367.48,576.537L367.48,611.97Z" style="fill:rgb(92,138,128);fill-opacity:0.75;fill-rule:nonzero;"/>
            <path id="path3780-9" d="M444.193,620.829L398.17,594.259L398.164,541.106L444.193,567.681L444.193,620.829Z" style="fill:rgb(35,66,60);fill-rule:nonzero;"/>
            <path id="path3772-4" d="M367.48,576.54L398.166,594.257L428.852,576.54L398.166,558.823L367.48,576.54Z" style="fill:rgb(196,143,62);fill-opacity:0.75;fill-rule:nonzero;"/>
            <path id="path3774-4" d="M398.17,629.69L428.856,611.973L428.856,576.54L398.17,594.257L398.17,629.69Z" style="fill:rgb(188,134,134);fill-opacity:0.75;fill-rule:nonzero;"/>
        </g>
    </g>
</svg>
